<svg width="18" height="19" viewBox="0 0 18 19" fill="none" xmlns="http://www.w3.org/2000/svg">
<path d="M9 11C8.7875 11 8.6095 10.928 8.466 10.784C8.322 10.6405 8.25 10.4625 8.25 10.25C8.25 10.0375 8.322 9.85925 8.466 9.71525C8.6095 9.57175 8.7875 9.5 9 9.5C9.2125 9.5 9.39075 9.57175 9.53475 9.71525C9.67825 9.85925 9.75 10.0375 9.75 10.25C9.75 10.4625 9.67825 10.6405 9.53475 10.784C9.39075 10.928 9.2125 11 9 11ZM6 11C5.7875 11 5.60925 10.928 5.46525 10.784C5.32175 10.6405 5.25 10.4625 5.25 10.25C5.25 10.0375 5.32175 9.85925 5.46525 9.71525C5.60925 9.57175 5.7875 9.5 6 9.5C6.2125 9.5 6.39075 9.57175 6.53475 9.71525C6.67825 9.85925 6.75 10.0375 6.75 10.25C6.75 10.4625 6.67825 10.6405 6.53475 10.784C6.39075 10.928 6.2125 11 6 11ZM12 11C11.7875 11 11.6095 10.928 11.466 10.784C11.322 10.6405 11.25 10.4625 11.25 10.25C11.25 10.0375 11.322 9.85925 11.466 9.71525C11.6095 9.57175 11.7875 9.5 12 9.5C12.2125 9.5 12.3905 9.57175 12.534 9.71525C12.678 9.85925 12.75 10.0375 12.75 10.25C12.75 10.4625 12.678 10.6405 12.534 10.784C12.3905 10.928 12.2125 11 12 11ZM9 14C8.7875 14 8.6095 13.928 8.466 13.784C8.322 13.6405 8.25 13.4625 8.25 13.25C8.25 13.0375 8.322 12.8595 8.466 12.716C8.6095 12.572 8.7875 12.5 9 12.5C9.2125 12.5 9.39075 12.572 9.53475 12.716C9.67825 12.8595 9.75 13.0375 9.75 13.25C9.75 13.4625 9.67825 13.6405 9.53475 13.784C9.39075 13.928 9.2125 14 9 14ZM6 14C5.7875 14 5.60925 13.928 5.46525 13.784C5.32175 13.6405 5.25 13.4625 5.25 13.25C5.25 13.0375 5.32175 12.8595 5.46525 12.716C5.60925 12.572 5.7875 12.5 6 12.5C6.2125 12.5 6.39075 12.572 6.53475 12.716C6.67825 12.8595 6.75 13.0375 6.75 13.25C6.75 13.4625 6.67825 13.6405 6.53475 13.784C6.39075 13.928 6.2125 14 6 14ZM12 14C11.7875 14 11.6095 13.928 11.466 13.784C11.322 13.6405 11.25 13.4625 11.25 13.25C11.25 13.0375 11.322 12.8595 11.466 12.716C11.6095 12.572 11.7875 12.5 12 12.5C12.2125 12.5 12.3905 12.572 12.534 12.716C12.678 12.8595 12.75 13.0375 12.75 13.25C12.75 13.4625 12.678 13.6405 12.534 13.784C12.3905 13.928 12.2125 14 12 14ZM3.75 17C3.3375 17 2.98425 16.8533 2.69025 16.5597C2.39675 16.2657 2.25 15.9125 2.25 15.5V5C2.25 4.5875 2.39675 4.2345 2.69025 3.941C2.98425 3.647 3.3375 3.5 3.75 3.5H4.5V2.75C4.5 2.5375 4.57175 2.35925 4.71525 2.21525C4.85925 2.07175 5.0375 2 5.25 2C5.4625 2 5.64075 2.07175 5.78475 2.21525C5.92825 2.35925 6 2.5375 6 2.75V3.5H12V2.75C12 2.5375 12.072 2.35925 12.216 2.21525C12.3595 2.07175 12.5375 2 12.75 2C12.9625 2 13.1405 2.07175 13.284 2.21525C13.428 2.35925 13.5 2.5375 13.5 2.75V3.5H14.25C14.6625 3.5 15.0157 3.647 15.3097 3.941C15.6033 4.2345 15.75 4.5875 15.75 5V15.5C15.75 15.9125 15.6033 16.2657 15.3097 16.5597C15.0157 16.8533 14.6625 17 14.25 17H3.75ZM3.75 15.5H14.25V8H3.75V15.5ZM3.75 6.5H14.25V5H3.75V6.5ZM3.75 6.5V5V6.5Z" fill="#5F3CCB"/>
</svg>
