<svg width="18" height="19" viewBox="0 0 18 19" fill="none" xmlns="http://www.w3.org/2000/svg">
<path d="M12.75 11.75C12.225 11.75 11.7812 11.5687 11.4188 11.2062C11.0563 10.8437 10.875 10.4 10.875 9.875C10.875 9.35 11.0563 8.90625 11.4188 8.54375C11.7812 8.18125 12.225 8 12.75 8C13.275 8 13.7188 8.18125 14.0812 8.54375C14.4437 8.90625 14.625 9.35 14.625 9.875C14.625 10.4 14.4437 10.8437 14.0812 11.2062C13.7188 11.5687 13.275 11.75 12.75 11.75ZM9.75 15.5C9.5375 15.5 9.3595 15.428 9.216 15.284C9.072 15.1405 9 14.9625 9 14.75V14.45C9 14.15 9.078 13.872 9.234 13.616C9.3905 13.3595 9.6125 13.175 9.9 13.0625C10.35 12.875 10.8158 12.7345 11.2972 12.641C11.7782 12.547 12.2625 12.5 12.75 12.5C13.2375 12.5 13.722 12.547 14.2035 12.641C14.6845 12.7345 15.15 12.875 15.6 13.0625C15.8875 13.175 16.1095 13.3595 16.266 13.616C16.422 13.872 16.5 14.15 16.5 14.45V14.75C16.5 14.9625 16.428 15.1405 16.284 15.284C16.1405 15.428 15.9625 15.5 15.75 15.5H9.75ZM7.5 9.5C6.675 9.5 5.96875 9.20625 5.38125 8.61875C4.79375 8.03125 4.5 7.325 4.5 6.5C4.5 5.675 4.79375 4.96875 5.38125 4.38125C5.96875 3.79375 6.675 3.5 7.5 3.5C8.325 3.5 9.03125 3.79375 9.61875 4.38125C10.2063 4.96875 10.5 5.675 10.5 6.5C10.5 7.325 10.2063 8.03125 9.61875 8.61875C9.03125 9.20625 8.325 9.5 7.5 9.5ZM2.25 15.5C2.0375 15.5 1.8595 15.428 1.716 15.284C1.572 15.1405 1.5 14.9625 1.5 14.75V13.25C1.5 12.925 1.6125 12.6033 1.8375 12.2847C2.0625 11.9658 2.39375 11.6875 2.83125 11.45C3.50625 11.0875 4.24375 10.797 5.04375 10.5785C5.84375 10.3595 6.6625 10.25 7.5 10.25C7.8375 10.25 8.197 10.275 8.5785 10.325C8.9595 10.375 9.35 10.45 9.75 10.55V11.525C9.575 11.5875 9.425 11.65 9.3 11.7125C9.175 11.775 9.04375 11.8438 8.90625 11.9188C8.68125 11.8562 8.447 11.8125 8.2035 11.7875C7.9595 11.7625 7.725 11.75 7.5 11.75C6.775 11.75 6.06575 11.8375 5.37225 12.0125C4.67825 12.1875 4.0125 12.4375 3.375 12.7625C3.25 12.825 3.15625 12.9125 3.09375 13.025C3.03125 13.1375 3 13.2625 3 13.4V14H7.5V15.5H2.25ZM7.5 8C7.9125 8 8.26575 7.853 8.55975 7.559C8.85325 7.2655 9 6.9125 9 6.5C9 6.0875 8.85325 5.7345 8.55975 5.441C8.26575 5.147 7.9125 5 7.5 5C7.0875 5 6.7345 5.147 6.441 5.441C6.147 5.7345 6 6.0875 6 6.5C6 6.9125 6.147 7.2655 6.441 7.559C6.7345 7.853 7.0875 8 7.5 8Z" fill="#5F3CCB"/>
</svg>
