<svg width="30" height="30" viewBox="0 0 30 30" fill="none" xmlns="http://www.w3.org/2000/svg">
<g clip-path="url(#clip0_1092_943)">
<rect x="6.6665" y="8.33325" width="16.6667" height="11.6667" fill="#6F3FFF"/>
<path d="M18.8751 1.63137C18.3704 1.11489 17.7676 0.704486 17.102 0.42429C16.4364 0.144095 15.7216 -0.000244141 14.9995 -0.000244141C14.2773 -0.000244141 13.5625 0.144095 12.8969 0.42429C12.2314 0.704486 11.6285 1.11489 11.1238 1.63137L9.95759 2.82762L8.28884 2.807C7.5665 2.79845 6.84974 2.93442 6.18071 3.20691C5.51168 3.47941 4.90389 3.88292 4.39308 4.39373C3.88227 4.90454 3.47875 5.51233 3.20626 6.18136C2.93376 6.85039 2.79779 7.56715 2.80634 8.2895L2.82509 9.95825L1.63259 11.1245C1.11611 11.6292 0.705706 12.232 0.425511 12.8976C0.145315 13.5631 0.000976563 14.278 0.000976562 15.0001C0.000976563 15.7223 0.145315 16.4371 0.425511 17.1027C0.705706 17.7682 1.11611 18.3711 1.63259 18.8757L2.82697 20.042L2.80634 21.7107C2.79779 22.4331 2.93376 23.1499 3.20626 23.8189C3.47875 24.4879 3.88227 25.0957 4.39308 25.6065C4.90389 26.1173 5.51168 26.5208 6.18071 26.7933C6.84974 27.0658 7.5665 27.2018 8.28884 27.1932L9.95759 27.1745L11.1238 28.367C11.6285 28.8835 12.2314 29.2939 12.8969 29.5741C13.5625 29.8543 14.2773 29.9986 14.9995 29.9986C15.7216 29.9986 16.4364 29.8543 17.102 29.5741C17.7676 29.2939 18.3704 28.8835 18.8751 28.367L20.0413 27.1726L21.7101 27.1932C22.4324 27.2018 23.1492 27.0658 23.8182 26.7933C24.4873 26.5208 25.095 26.1173 25.6059 25.6065C26.1167 25.0957 26.5202 24.4879 26.7927 23.8189C27.0652 23.1499 27.2011 22.4331 27.1926 21.7107L27.1738 20.042L28.3663 18.8757C28.8828 18.3711 29.2932 17.7682 29.5734 17.1027C29.8536 16.4371 29.998 15.7223 29.998 15.0001C29.998 14.278 29.8536 13.5631 29.5734 12.8976C29.2932 12.232 28.8828 11.6292 28.3663 11.1245L27.172 9.95825L27.1926 8.2895C27.2011 7.56715 27.0652 6.85039 26.7927 6.18136C26.5202 5.51233 26.1167 4.90454 25.6059 4.39373C25.095 3.88292 24.4873 3.47941 23.8182 3.20691C23.1492 2.93442 22.4324 2.79845 21.7101 2.807L20.0413 2.82575L18.8751 1.63137ZM19.4132 12.8514L13.7882 18.4764C13.7011 18.5637 13.5977 18.6329 13.4838 18.6802C13.3699 18.7275 13.2478 18.7518 13.1245 18.7518C13.0012 18.7518 12.879 18.7275 12.7652 18.6802C12.6513 18.6329 12.5478 18.5637 12.4607 18.4764L9.64822 15.6639C9.56105 15.5767 9.49191 15.4732 9.44473 15.3593C9.39756 15.2455 9.37328 15.1234 9.37328 15.0001C9.37328 14.8769 9.39756 14.7548 9.44473 14.6409C9.49191 14.527 9.56105 14.4235 9.64822 14.3364C9.73538 14.2492 9.83886 14.1801 9.95275 14.1329C10.0666 14.0857 10.1887 14.0614 10.312 14.0614C10.4352 14.0614 10.5573 14.0857 10.6712 14.1329C10.7851 14.1801 10.8886 14.2492 10.9757 14.3364L13.1245 16.487L18.0857 11.5239C18.2618 11.3478 18.5005 11.2489 18.7495 11.2489C18.9984 11.2489 19.2372 11.3478 19.4132 11.5239C19.5893 11.6999 19.6881 11.9387 19.6881 12.1876C19.6881 12.4366 19.5893 12.6753 19.4132 12.8514Z" fill="#DED2FF"/>
</g>
<defs>
<clipPath id="clip0_1092_943">
<rect width="30" height="30" fill="white"/>
</clipPath>
</defs>
</svg>
