<svg width="32" height="32" viewBox="0 0 32 32" fill="none" xmlns="http://www.w3.org/2000/svg">
<circle cx="16" cy="16" r="9" fill="white"/>
<path d="M14.1337 18.3998L11.2337 15.4998C10.9892 15.2554 10.6892 15.1332 10.3337 15.1332C9.9781 15.1332 9.66699 15.2665 9.40033 15.5332C9.15588 15.7776 9.03366 16.0887 9.03366 16.4665C9.03366 16.8443 9.15588 17.1554 9.40033 17.3998L13.2003 21.1998C13.4448 21.4443 13.7559 21.5665 14.1337 21.5665C14.5114 21.5665 14.8225 21.4443 15.067 21.1998L22.6337 13.6332C22.8781 13.3887 23.0003 13.0887 23.0003 12.7332C23.0003 12.3776 22.867 12.0665 22.6003 11.7998C22.3559 11.5554 22.0448 11.4332 21.667 11.4332C21.2892 11.4332 20.9781 11.5554 20.7337 11.7998L14.1337 18.3998ZM16.0003 29.3332C14.1559 29.3332 12.4225 28.9829 10.8003 28.2825C9.1781 27.5829 7.76699 26.6332 6.56699 25.4332C5.36699 24.2332 4.41721 22.8221 3.71766 21.1998C3.01721 19.5776 2.66699 17.8443 2.66699 15.9998C2.66699 14.1554 3.01721 12.4221 3.71766 10.7998C4.41721 9.17762 5.36699 7.7665 6.56699 6.5665C7.76699 5.3665 9.1781 4.41628 10.8003 3.71584C12.4225 3.01628 14.1559 2.6665 16.0003 2.6665C17.8448 2.6665 19.5781 3.01628 21.2003 3.71584C22.8225 4.41628 24.2337 5.3665 25.4337 6.5665C26.6337 7.7665 27.5834 9.17762 28.283 10.7998C28.9834 12.4221 29.3337 14.1554 29.3337 15.9998C29.3337 17.8443 28.9834 19.5776 28.283 21.1998C27.5834 22.8221 26.6337 24.2332 25.4337 25.4332C24.2337 26.6332 22.8225 27.5829 21.2003 28.2825C19.5781 28.9829 17.8448 29.3332 16.0003 29.3332Z" fill="#794DFD"/>
</svg>
