<svg width="19" height="20" viewBox="0 0 19 20" fill="none" xmlns="http://www.w3.org/2000/svg">
<path d="M17.2629 8.36791H16.6252V8.33333H9.50016V11.6667H13.9743C13.3215 13.6071 11.5676 15 9.50016 15C6.87698 15 4.75016 12.7612 4.75016 10C4.75016 7.23875 6.87698 5 9.50016 5C10.711 5 11.8126 5.48083 12.6514 6.26625L14.8906 3.90916C13.4767 2.52208 11.5854 1.66666 9.50016 1.66666C5.12818 1.66666 1.5835 5.39791 1.5835 10C1.5835 14.6021 5.12818 18.3333 9.50016 18.3333C13.8721 18.3333 17.4168 14.6021 17.4168 10C17.4168 9.44125 17.3622 8.89583 17.2629 8.36791Z" fill="#FFC107"/>
<path d="M2.49609 6.12125L5.09711 8.12916C5.80091 6.295 7.50536 5 9.49997 5C10.7108 5 11.8124 5.48083 12.6512 6.26625L14.8904 3.90916C13.4765 2.52208 11.5852 1.66666 9.49997 1.66666C6.45918 1.66666 3.82214 3.47375 2.49609 6.12125Z" fill="#FF3D00"/>
<path d="M9.49996 18.3333C11.5448 18.3333 13.4029 17.5096 14.8077 16.17L12.3575 13.9875C11.5359 14.6452 10.5321 15.0009 9.49996 15C7.44084 15 5.69244 13.6179 5.03377 11.6892L2.45215 13.7829C3.76236 16.4817 6.42315 18.3333 9.49996 18.3333Z" fill="#4CAF50"/>
<path d="M17.2627 8.36792H16.625V8.33334H9.5V11.6667H13.9741C13.6619 12.5902 13.0995 13.3972 12.3563 13.9879L12.3575 13.9871L14.8077 16.1696C14.6344 16.3354 17.4167 14.1667 17.4167 10C17.4167 9.44125 17.362 8.89584 17.2627 8.36792Z" fill="#1976D2"/>
</svg>
