<svg width="current" height="current" viewBox="0 0 45 45" fill="none" xmlns="http://www.w3.org/2000/svg">
<path d="M37.2656 14.0625C36.2922 14.0625 35.3406 14.3512 34.5312 14.892C33.7218 15.4328 33.0909 16.2015 32.7184 17.1009C32.3459 18.0002 32.2484 18.9898 32.4383 19.9446C32.6282 20.8993 33.097 21.7763 33.7853 22.4647C34.4737 23.153 35.3507 23.6218 36.3054 23.8117C37.2602 24.0016 38.2498 23.9041 39.1491 23.5316C40.0485 23.1591 40.8172 22.5282 41.358 21.7188C41.8988 20.9094 42.1875 19.9578 42.1875 18.9844C42.1829 17.6804 41.6628 16.4312 40.7408 15.5092C39.8188 14.5872 38.5696 14.0671 37.2656 14.0625ZM37.2656 21.0938C36.8484 21.0938 36.4406 20.97 36.0937 20.7383C35.7468 20.5065 35.4765 20.177 35.3168 19.7916C35.1572 19.4062 35.1154 18.982 35.1968 18.5729C35.2782 18.1637 35.4791 17.7878 35.7741 17.4928C36.0691 17.1978 36.4449 16.9969 36.8541 16.9155C37.2633 16.8341 37.6874 16.8759 38.0728 17.0356C38.4583 17.1952 38.7877 17.4656 39.0195 17.8125C39.2513 18.1594 39.375 18.5672 39.375 18.9844C39.375 19.5438 39.1528 20.0803 38.7572 20.4759C38.3616 20.8715 37.8251 21.0938 37.2656 21.0938ZM12.6563 18.9844C12.6563 18.0109 12.3676 17.0593 11.8268 16.2499C11.2859 15.4405 10.5173 14.8097 9.6179 14.4372C8.71854 14.0646 7.72892 13.9672 6.77417 14.1571C5.81942 14.347 4.94242 14.8157 4.25409 15.5041C3.56575 16.1924 3.09699 17.0694 2.90707 18.0242C2.71716 18.9789 2.81463 19.9685 3.18716 20.8679C3.55968 21.7673 4.19053 22.5359 4.99993 23.0768C5.80933 23.6176 6.76092 23.9063 7.73438 23.9063C9.03831 23.9016 10.2875 23.3816 11.2096 22.4595C12.1316 21.5375 12.6516 20.2883 12.6563 18.9844ZM7.73438 21.0938C7.31718 21.0938 6.90936 20.97 6.56247 20.7383C6.21559 20.5065 5.94522 20.177 5.78557 19.7916C5.62592 19.4062 5.58414 18.982 5.66553 18.5729C5.74692 18.1637 5.94782 17.7878 6.24282 17.4928C6.53783 17.1978 6.91368 16.9969 7.32286 16.9155C7.73204 16.8341 8.15616 16.8759 8.5416 17.0356C8.92704 17.1952 9.25648 17.4656 9.48826 17.8125C9.72004 18.1594 9.84375 18.5672 9.84375 18.9844C9.84375 19.5438 9.62152 20.0803 9.22593 20.4759C8.83035 20.8715 8.29382 21.0938 7.73438 21.0938ZM16.1719 15.4688C17.1453 15.4688 18.0969 15.1801 18.9063 14.6393C19.7157 14.0984 20.3466 13.3298 20.7191 12.4304C21.0916 11.531 21.1891 10.5414 20.9992 9.58667C20.8093 8.63192 20.3405 7.75492 19.6522 7.06659C18.9638 6.37825 18.0868 5.90949 17.1321 5.71957C16.1773 5.52966 15.1877 5.62713 14.2884 5.99966C13.389 6.37218 12.6203 7.00303 12.0795 7.81243C11.5387 8.62183 11.25 9.57342 11.25 10.5469C11.2546 11.8508 11.7747 13.1 12.6967 14.022C13.6187 14.9441 14.8679 15.4641 16.1719 15.4688ZM16.1719 8.4375C16.5891 8.4375 16.9969 8.56121 17.3438 8.793C17.6907 9.02478 17.961 9.35422 18.1207 9.73965C18.2803 10.1251 18.3221 10.5492 18.2407 10.9584C18.1593 11.3676 17.9584 11.7434 17.6634 12.0384C17.3684 12.3334 16.9926 12.5343 16.5834 12.6157C16.1742 12.6971 15.7501 12.6553 15.3647 12.4957C14.9792 12.336 14.6498 12.0657 14.418 11.7188C14.1862 11.3719 14.0625 10.9641 14.0625 10.5469C14.0625 9.98744 14.2847 9.45091 14.6803 9.05532C15.0759 8.65974 15.6124 8.4375 16.1719 8.4375ZM28.8281 15.4688C29.8016 15.4688 30.7532 15.1801 31.5626 14.6393C32.372 14.0984 33.0028 13.3298 33.3753 12.4304C33.7479 11.531 33.8453 10.5414 33.6554 9.58667C33.4655 8.63192 32.9968 7.75492 32.3084 7.06659C31.6201 6.37825 30.7431 5.90949 29.7883 5.71957C28.8336 5.52966 27.844 5.62713 26.9446 5.99966C26.0453 6.37218 25.2766 7.00303 24.7357 7.81243C24.1949 8.62183 23.9063 9.57342 23.9063 10.5469C23.9109 11.8508 24.4309 13.1 25.353 14.022C26.275 14.9441 27.5242 15.4641 28.8281 15.4688ZM28.8281 8.4375C29.2453 8.4375 29.6531 8.56121 30 8.793C30.3469 9.02478 30.6173 9.35422 30.7769 9.73965C30.9366 10.1251 30.9784 10.5492 30.897 10.9584C30.8156 11.3676 30.6147 11.7434 30.3197 12.0384C30.0247 12.3334 29.6488 12.5343 29.2396 12.6157C28.8305 12.6971 28.4063 12.6553 28.0209 12.4957C27.6355 12.336 27.306 12.0657 27.0742 11.7188C26.8425 11.3719 26.7188 10.9641 26.7188 10.5469C26.7188 9.98744 26.941 9.45091 27.3366 9.05532C27.7322 8.65974 28.2687 8.4375 28.8281 8.4375ZM32.8887 26.1563C32.1741 25.7635 31.5439 25.2338 31.0342 24.5974C30.5245 23.961 30.1452 23.2304 29.918 22.4473C29.4562 20.8364 28.4825 19.4197 27.1442 18.4111C25.806 17.4026 24.1757 16.8571 22.5 16.8571C20.8243 16.8571 19.194 17.4026 17.8558 18.4111C16.5175 19.4197 15.5439 20.8364 15.082 22.4473C14.6239 24.024 13.5629 25.3566 12.1289 26.1563C10.7516 26.8996 9.66174 28.0813 9.03186 29.514C8.40199 30.9468 8.26815 32.5487 8.65154 34.0661C9.03493 35.5835 9.91363 36.9297 11.1485 37.8913C12.3833 38.8529 13.9037 39.375 15.4688 39.375C16.4039 39.3741 17.3298 39.1889 18.1934 38.8301C20.9441 37.6905 24.0337 37.6842 26.7891 38.8125C27.6556 39.1838 28.5885 39.3751 29.5313 39.375C31.0979 39.379 32.6209 38.8596 33.8587 37.8994C35.0966 36.9392 35.9783 35.5931 36.3639 34.0747C36.7496 32.5563 36.6171 30.9526 35.9875 29.5181C35.3579 28.0835 34.2673 26.9003 32.8887 26.1563ZM29.5313 36.5625C28.9577 36.5654 28.3896 36.4517 27.8613 36.2285C26.1634 35.518 24.3407 35.1534 22.5 35.1563C20.654 35.1567 18.8262 35.5211 17.1211 36.2285C16.5996 36.4537 16.0368 36.5675 15.4688 36.5625C14.5264 36.5645 13.6105 36.2509 12.8671 35.6717C12.1238 35.0926 11.5957 34.2812 11.3671 33.367C11.1386 32.4527 11.2227 31.4883 11.6061 30.6275C11.9894 29.7666 12.65 29.0589 13.4824 28.6172C14.5157 28.0464 15.4264 27.2776 16.1623 26.3546C16.8983 25.4317 17.4451 24.3727 17.7715 23.2383C18.0676 22.2131 18.689 21.3119 19.5418 20.6706C20.3947 20.0292 21.4329 19.6824 22.5 19.6824C23.5671 19.6824 24.6053 20.0292 25.4582 20.6706C26.311 21.3119 26.9324 22.2131 27.2285 23.2383C27.5549 24.3727 28.1017 25.4317 28.8377 26.3546C29.5736 27.2776 30.4843 28.0464 31.5176 28.6172H31.5352C32.3689 29.0596 33.0303 29.7688 33.4134 30.6315C33.7965 31.4941 33.8793 32.4603 33.6484 33.3755C33.4176 34.2908 32.8865 35.1022 32.1401 35.6799C31.3937 36.2577 30.4751 36.5684 29.5313 36.5625Z" fill="current" fill-opacity="0.9"/>
</svg>
