<svg width="current" height="current" viewBox="0 0 45 45" fill="none" xmlns="http://www.w3.org/2000/svg">
<path d="M23.9063 10.5469C23.9063 9.57342 24.1949 8.62183 24.7357 7.81243C25.2766 7.00303 26.0453 6.37218 26.9446 5.99966C27.844 5.62713 28.8336 5.52966 29.7883 5.71957C30.7431 5.90949 31.6201 6.37825 32.3084 7.06659C32.9968 7.75492 33.4655 8.63192 33.6554 9.58667C33.8453 10.5414 33.7479 11.531 33.3753 12.4304C33.0028 13.3298 32.372 14.0984 31.5626 14.6393C30.7532 15.1801 29.8016 15.4688 28.8281 15.4688C27.5242 15.4641 26.275 14.9441 25.353 14.022C24.4309 13.1 23.9109 11.8508 23.9063 10.5469ZM12.6563 18.9844C12.6563 18.0109 12.3676 17.0593 11.8268 16.2499C11.2859 15.4405 10.5173 14.8097 9.6179 14.4372C8.71854 14.0646 7.72892 13.9672 6.77417 14.1571C5.81942 14.347 4.94242 14.8158 4.25409 15.5041C3.56575 16.1924 3.09699 17.0694 2.90707 18.0242C2.71716 18.9789 2.81463 19.9685 3.18716 20.8679C3.55968 21.7673 4.19053 22.5359 4.99993 23.0768C5.80933 23.6176 6.76092 23.9063 7.73438 23.9063C9.03831 23.9016 10.2875 23.3816 11.2096 22.4595C12.1316 21.5375 12.6516 20.2883 12.6563 18.9844ZM16.1719 15.4688C17.1453 15.4688 18.0969 15.1801 18.9063 14.6393C19.7157 14.0984 20.3466 13.3298 20.7191 12.4304C21.0916 11.531 21.1891 10.5414 20.9992 9.58667C20.8093 8.63192 20.3405 7.75492 19.6522 7.06659C18.9638 6.37825 18.0868 5.90949 17.1321 5.71957C16.1773 5.52966 15.1877 5.62713 14.2884 5.99966C13.389 6.37218 12.6203 7.00303 12.0795 7.81243C11.5387 8.62183 11.25 9.57342 11.25 10.5469C11.2546 11.8508 11.7747 13.1 12.6967 14.022C13.6187 14.9441 14.8679 15.4641 16.1719 15.4688ZM32.8887 26.1563C32.1741 25.7635 31.5439 25.2338 31.0342 24.5974C30.5245 23.961 30.1452 23.2304 29.918 22.4473C29.4562 20.8364 28.4825 19.4197 27.1442 18.4111C25.806 17.4026 24.1757 16.8571 22.5 16.8571C20.8243 16.8571 19.194 17.4026 17.8558 18.4111C16.5175 19.4197 15.5439 20.8364 15.082 22.4473C14.6239 24.024 13.5629 25.3566 12.1289 26.1563C10.7516 26.8996 9.66174 28.0813 9.03186 29.514C8.40199 30.9468 8.26815 32.5487 8.65154 34.0661C9.03493 35.5835 9.91363 36.9297 11.1485 37.8913C12.3833 38.8529 13.9037 39.375 15.4688 39.375C16.4039 39.3741 17.3298 39.1889 18.1934 38.8301C20.9441 37.6905 24.0337 37.6842 26.7891 38.8125C27.6556 39.1838 28.5885 39.3751 29.5313 39.375C31.0979 39.379 32.6209 38.8596 33.8587 37.8994C35.0966 36.9392 35.9783 35.5931 36.3639 34.0747C36.7496 32.5563 36.6171 30.9526 35.9875 29.5181C35.3579 28.0835 34.2673 26.9003 32.8887 26.1563ZM37.2656 14.0625C36.2922 14.0625 35.3406 14.3512 34.5312 14.892C33.7218 15.4328 33.0909 16.2015 32.7184 17.1009C32.3459 18.0002 32.2484 18.9898 32.4383 19.9446C32.6282 20.8993 33.097 21.7763 33.7853 22.4647C34.4737 23.153 35.3507 23.6218 36.3054 23.8117C37.2602 24.0016 38.2498 23.9041 39.1491 23.5316C40.0485 23.1591 40.8172 22.5282 41.358 21.7188C41.8988 20.9094 42.1875 19.9578 42.1875 18.9844C42.1829 17.6804 41.6628 16.4312 40.7408 15.5092C39.8188 14.5872 38.5696 14.0671 37.2656 14.0625Z" fill="current" fill-opacity="0.9"/>
</svg>
