<svg width="18" height="18" viewBox="0 0 18 18" fill="none" xmlns="http://www.w3.org/2000/svg">
<path d="M8.0656 3.77956C8.6585 2.92817 9.46397 2.41155 10.482 2.22971C11.4999 2.04717 12.4346 2.25235 13.286 2.84526C14.1373 3.43816 14.6542 4.24377 14.8364 5.26209C15.0185 6.27971 14.8132 7.21422 14.2203 8.06561L12.9344 9.91201C12.813 10.0864 12.6523 10.1917 12.4522 10.2278C12.252 10.2633 12.0648 10.2203 11.8904 10.0989C11.716 9.97743 11.6109 9.81683 11.5752 9.61706C11.5393 9.4166 11.5821 9.22918 11.7035 9.0548L12.9893 7.2084C13.3465 6.69551 13.4706 6.13455 13.3616 5.52551C13.2526 4.91646 12.9416 4.43336 12.4287 4.07619C11.9159 3.71902 11.3549 3.59493 10.7458 3.70394C10.1368 3.81294 9.6537 4.12388 9.29653 4.63677L8.01072 6.48317C7.88928 6.65755 7.72853 6.76282 7.52848 6.79898C7.32831 6.83445 7.14103 6.79147 6.96665 6.67003C6.79227 6.54859 6.6872 6.38799 6.65145 6.18822C6.61557 5.98776 6.65835 5.80034 6.77979 5.62596L8.0656 3.77956ZM9.67025 6.72491C9.79169 6.55053 9.9525 6.44561 10.1527 6.41014C10.3527 6.37398 10.5399 6.41661 10.7143 6.53805C10.8887 6.65949 10.9938 6.82044 11.0297 7.0209C11.0655 7.22067 11.0226 7.40774 10.9012 7.58212L8.32956 11.2749C8.20812 11.4493 8.04737 11.5546 7.84732 11.5907C7.64715 11.6262 7.45987 11.5832 7.28549 11.4618C7.1111 11.3403 7.00604 11.1797 6.97028 10.98C6.93441 10.7795 6.97719 10.5921 7.09862 10.4177L9.67025 6.72491ZM5.06537 8.08782C5.1868 7.91344 5.34761 7.80851 5.54779 7.77305C5.74784 7.73688 5.93506 7.77952 6.10944 7.90096C6.28382 8.0224 6.38895 8.18335 6.42483 8.38381C6.46058 8.58357 6.41774 8.77065 6.2963 8.94503L5.01048 10.7914C4.65331 11.3043 4.52923 11.8653 4.63823 12.4743C4.74723 13.0834 5.05818 13.5665 5.57107 13.9236C6.08395 14.2808 6.64492 14.4049 7.25396 14.2959C7.863 14.1869 8.34611 13.8759 8.70328 13.3631L9.98909 11.5167C10.1105 11.3423 10.2713 11.2374 10.4715 11.2019C10.6716 11.1657 10.8588 11.2084 11.0332 11.3298C11.2075 11.4512 11.3127 11.6122 11.3486 11.8126C11.3843 12.0124 11.3415 12.1995 11.22 12.3739L9.93421 14.2203C9.34131 15.0717 8.5359 15.5886 7.51799 15.7712C6.49996 15.953 5.56525 15.7475 4.71386 15.1546C3.86246 14.5617 3.3457 13.7564 3.16357 12.7388C2.98132 11.7205 3.18665 10.7856 3.77955 9.93422L5.06537 8.08782Z" fill="#5F3CCB"/>
</svg>
