<svg width="18" height="18" viewBox="0 0 18 18" fill="none" xmlns="http://www.w3.org/2000/svg">
<path d="M9 15C8.5875 15 8.2345 14.8533 7.941 14.5597C7.647 14.2657 7.5 13.9125 7.5 13.5C7.5 13.0875 7.647 12.7343 7.941 12.4403C8.2345 12.1467 8.5875 12 9 12C9.4125 12 9.76575 12.1467 10.0598 12.4403C10.3533 12.7343 10.5 13.0875 10.5 13.5C10.5 13.9125 10.3533 14.2657 10.0598 14.5597C9.76575 14.8533 9.4125 15 9 15ZM9 10.5C8.5875 10.5 8.2345 10.353 7.941 10.059C7.647 9.7655 7.5 9.4125 7.5 9C7.5 8.5875 7.647 8.23425 7.941 7.94025C8.2345 7.64675 8.5875 7.5 9 7.5C9.4125 7.5 9.76575 7.64675 10.0598 7.94025C10.3533 8.23425 10.5 8.5875 10.5 9C10.5 9.4125 10.3533 9.7655 10.0598 10.059C9.76575 10.353 9.4125 10.5 9 10.5ZM9 6C8.5875 6 8.2345 5.853 7.941 5.559C7.647 5.2655 7.5 4.9125 7.5 4.5C7.5 4.0875 7.647 3.7345 7.941 3.441C8.2345 3.147 8.5875 3 9 3C9.4125 3 9.76575 3.147 10.0598 3.441C10.3533 3.7345 10.5 4.0875 10.5 4.5C10.5 4.9125 10.3533 5.2655 10.0598 5.559C9.76575 5.853 9.4125 6 9 6Z" fill="#794DFD"/>
</svg>
