<svg width="18" height="19" viewBox="0 0 18 19" fill="none" xmlns="http://www.w3.org/2000/svg">
<path d="M9 13.25H13.5C13.7125 13.25 13.8905 13.178 14.034 13.034C14.178 12.8905 14.25 12.7125 14.25 12.5V9.5C14.25 9.2875 14.178 9.10925 14.034 8.96525C13.8905 8.82175 13.7125 8.75 13.5 8.75H9C8.7875 8.75 8.6095 8.82175 8.466 8.96525C8.322 9.10925 8.25 9.2875 8.25 9.5V12.5C8.25 12.7125 8.322 12.8905 8.466 13.034C8.6095 13.178 8.7875 13.25 9 13.25ZM3 15.5C2.5875 15.5 2.2345 15.3532 1.941 15.0597C1.647 14.7657 1.5 14.4125 1.5 14V5C1.5 4.5875 1.647 4.2345 1.941 3.941C2.2345 3.647 2.5875 3.5 3 3.5H15C15.4125 3.5 15.7657 3.647 16.0597 3.941C16.3532 4.2345 16.5 4.5875 16.5 5V14C16.5 14.4125 16.3532 14.7657 16.0597 15.0597C15.7657 15.3532 15.4125 15.5 15 15.5H3ZM3 14H15V5H3V14Z" fill="#5F3CCB"/>
</svg>
