<svg width="18" height="18" viewBox="0 0 18 18" fill="none" xmlns="http://www.w3.org/2000/svg">
<path d="M4.45 16C5.031 16 5.5 15.5161 5.5 14.9167V13.8333H12.5V14.9167C12.5 15.5161 12.969 16 13.55 16C14.131 16 14.6 15.5161 14.6 14.9167V13.1111C14.6 12.3167 13.97 11.6667 13.2 11.6667H4.8C4.03 11.6667 3.4 12.3167 3.4 13.1111V14.9167C3.4 15.5161 3.869 16 4.45 16ZM14.6 8.05556H15.3C15.685 8.05556 16 8.38056 16 8.77778V9.5C16 9.89722 15.685 10.2222 15.3 10.2222H14.6C14.215 10.2222 13.9 9.89722 13.9 9.5V8.77778C13.9 8.38056 14.215 8.05556 14.6 8.05556ZM2.7 8.05556H3.4C3.785 8.05556 4.1 8.38056 4.1 8.77778V9.5C4.1 9.89722 3.785 10.2222 3.4 10.2222H2.7C2.315 10.2222 2 9.89722 2 9.5V8.77778C2 8.38056 2.315 8.05556 2.7 8.05556ZM12.5 10.2222H5.5V4.44444C5.5 3.65 6.13 3 6.9 3H11.1C11.87 3 12.5 3.65 12.5 4.44444V10.2222Z" fill="#5F3CCB"/>
</svg>
