<svg width="19" height="16" viewBox="0 0 19 16" fill="none" xmlns="http://www.w3.org/2000/svg">
<g clip-path="url(#clip0_439_138)">
<path d="M13.4583 10.0007V10M13.4583 12.6667H3.16667C2.9567 12.6667 2.75534 12.5965 2.60687 12.4714C2.45841 12.3464 2.375 12.1769 2.375 12V4.00004C2.375 3.82323 2.45841 3.65366 2.60687 3.52864C2.75534 3.40361 2.9567 3.33337 3.16667 3.33337H13.4583V12.6667ZM13.4583 12.6667H15.8333C16.0433 12.6667 16.2447 12.5965 16.3931 12.4714C16.5416 12.3464 16.625 12.1769 16.625 12V4.00004C16.625 3.82323 16.5416 3.65366 16.3931 3.52864C16.2447 3.40361 16.0433 3.33337 15.8333 3.33337H13.4583V12.6667ZM13.4583 12.6667V12V12.6667ZM13.4583 3.33337V4.00004V3.33337ZM13.4583 6.00071V6.00004V6.00071ZM13.4583 8.00071V8.00004V8.00071Z" stroke="#5F3CCB" stroke-width="1.33333" stroke-linecap="round" stroke-linejoin="round"/>
</g>
<defs>
<clipPath id="clip0_439_138">
<rect width="19" height="16" fill="white"/>
</clipPath>
</defs>
</svg>
