<svg width="18" height="18" viewBox="0 0 18 18" fill="none" xmlns="http://www.w3.org/2000/svg">
<path d="M3 15C2.5875 15 2.2345 14.8532 1.941 14.5597C1.647 14.2657 1.5 13.9125 1.5 13.5V10.5C1.9125 10.5 2.26575 10.353 2.55975 10.059C2.85325 9.7655 3 9.4125 3 9C3 8.5875 2.85325 8.23425 2.55975 7.94025C2.26575 7.64675 1.9125 7.5 1.5 7.5V4.5C1.5 4.0875 1.647 3.7345 1.941 3.441C2.2345 3.147 2.5875 3 3 3H15C15.4125 3 15.7657 3.147 16.0597 3.441C16.3532 3.7345 16.5 4.0875 16.5 4.5V13.5C16.5 13.9125 16.3532 14.2657 16.0597 14.5597C15.7657 14.8532 15.4125 15 15 15H3ZM3 13.5H15V4.5H3V6.4125C3.4625 6.6875 3.82825 7.053 4.09725 7.509C4.36575 7.9655 4.5 8.4625 4.5 9C4.5 9.5375 4.36575 10.0345 4.09725 10.491C3.82825 10.947 3.4625 11.3125 3 11.5875V13.5Z" fill="#5F3CCB"/>
</svg>
