<svg width="17" height="15" viewBox="0 0 17 15" fill="none" xmlns="http://www.w3.org/2000/svg">
<path d="M16.2105 2.50936C15.6409 2.76963 15.0368 2.94047 14.4182 3.0162C15.0625 2.61784 15.5573 1.98702 15.7903 1.2354C15.1777 1.61034 14.5075 1.87451 13.8087 2.0165C13.2394 1.39095 12.4285 1 11.5309 1C9.80743 1 8.41014 2.44121 8.41014 4.21876C8.41014 4.47108 8.43777 4.71672 8.49095 4.95236C5.89743 4.81808 3.59803 3.53665 2.05885 1.58921C1.79029 2.06461 1.63641 2.61759 1.63641 3.20741C1.63641 4.32418 2.18737 5.30936 3.02466 5.88661C2.5291 5.8706 2.04445 5.73254 1.61115 5.48396C1.61098 5.49744 1.61098 5.51093 1.61098 5.52447C1.61098 7.08403 2.68665 8.38502 4.11418 8.68072C3.65464 8.80963 3.17263 8.8285 2.70495 8.73588C3.10202 10.0147 4.25452 10.9453 5.62002 10.9713C4.55201 11.8346 3.20642 12.3492 1.74442 12.3492C1.4925 12.3492 1.24414 12.3339 1 12.3042C2.38101 13.2175 4.02131 13.7504 5.78359 13.7504C11.5236 13.7504 14.6624 8.84558 14.6624 4.59206C14.6624 4.45245 14.6594 4.31364 14.6533 4.17562C15.2643 3.72007 15.7916 3.15582 16.2105 2.50936Z" fill="#55ACEE"/>
</svg>
