<svg width="19" height="16" viewBox="0 0 19 16" fill="none" xmlns="http://www.w3.org/2000/svg">
<path d="M19 1.94832C18.2885 2.27344 17.5339 2.48684 16.7611 2.58143C17.566 2.08383 18.184 1.29585 18.4751 0.356975C17.7099 0.825328 16.8727 1.15531 15.9998 1.33267C15.2887 0.551272 14.2757 0.0629272 13.1545 0.0629272C11.0017 0.0629272 9.25627 1.8632 9.25627 4.0836C9.25627 4.39877 9.29078 4.70561 9.3572 4.99996C6.11755 4.83223 3.24529 3.23154 1.32265 0.798927C0.987184 1.39276 0.794957 2.08352 0.794957 2.82029C0.794957 4.21527 1.48319 5.44589 2.52908 6.16697C1.91006 6.14697 1.30465 5.97451 0.763414 5.664C0.763191 5.68084 0.763191 5.69768 0.763191 5.7146C0.763191 7.6627 2.10685 9.28781 3.89003 9.65719C3.31601 9.81821 2.7139 9.84178 2.12971 9.72609C2.62571 11.3235 4.06533 12.4859 5.77103 12.5184C4.43695 13.5968 2.75611 14.2396 0.929887 14.2396C0.615199 14.2396 0.304965 14.2206 0 14.1834C1.72507 15.3242 3.77402 15.9899 5.97535 15.9899C13.1454 15.9899 17.0662 9.86312 17.0662 4.54989C17.0662 4.3755 17.0624 4.2021 17.0549 4.0297C17.818 3.46066 18.4767 2.75584 19 1.94832" fill="#55ACEE"/>
</svg>
